<svg width="32" height="32" viewBox="0 0 32 32" fill="none" xmlns="http://www.w3.org/2000/svg">
<path d="M0 16C0 7.16344 7.16344 0 16 0C24.8366 0 32 7.16344 32 16C32 24.8366 24.8366 32 16 32C7.16344 32 0 24.8366 0 16Z" fill="#1877F2"/>
<g clip-path="url(#clip0_2_33)">
<path d="M20 9.33337H18C17.116 9.33337 16.2681 9.68456 15.643 10.3097C15.0179 10.9348 14.6667 11.7827 14.6667 12.6667V14.6667H12.6667V17.3334H14.6667V22.6667H17.3333V17.3334H19.3333L20 14.6667H17.3333V12.6667C17.3333 12.4899 17.4036 12.3203 17.5286 12.1953C17.6536 12.0703 17.8232 12 18 12H20V9.33337Z" stroke="white" stroke-width="2" stroke-linecap="round" stroke-linejoin="round"/>
</g>
<defs>
<clipPath id="clip0_2_33">
<rect width="16" height="16" fill="white" transform="translate(8 8)"/>
</clipPath>
</defs>
</svg>
